<?xml version="1.0" encoding="utf-8"?>
<!-- Generator: Adobe Illustrator 21.0.2, SVG Export Plug-In . SVG Version: 6.00 Build 0)  -->
<svg version="1.1" id="Layer_1" xmlns="http://www.w3.org/2000/svg" xmlns:xlink="http://www.w3.org/1999/xlink" x="0px" y="0px"
	 viewBox="0 0 612 792" style="enable-background:new 0 0 612 792;" xml:space="preserve">
<g>
	<path d="M431.7,291.9c-40.4,58.7-80.8,117.4-121.1,176.1c-9.5,13.9-18.9,27.8-28.6,41.6c-7.4,10.6-18.2,13.7-28.2,8.1
		c-3.7-2.1-6.6-5.1-8.7-8.7c-19.4-33-38.7-66-58.1-99.1c-3.9-6.6-7.6-13.3-11.4-20c0-3.7,0-7.3,0-11c8.1-18.3,14.7-18.2,30.7-9.5
		c17.7,9.6,35.2,19.5,52.8,29.4c2.2,1.3,3.8,1.3,5.7-0.5c7.2-6.4,14.6-12.6,22-18.9c33.5-28.7,67-57.4,100.5-86
		c7.1-6.1,14.1-12.2,21.3-18.1c7.2-5.8,13.6-5,19.5,2c1.1,1.3,2.3,2.4,3.5,3.5C431.7,284.6,431.7,288.3,431.7,291.9z"/>
</g>
</svg>
